<svg width="644" height="355" viewBox="0 0 644 355" fill="none" xmlns="http://www.w3.org/2000/svg">
    <g clip-path="url(#clip0_5_2709)">
    <path d="M468.99 335.16H0V18.9399H468.99V335.16Z" fill="#ED1C24"/>
    <path d="M150.67 58.71H179.11V289.48H150.67V58.71Z" fill="white"/>
    <path fill-rule="evenodd" clip-rule="evenodd" d="M97.5899 276.95C97.5699 283.84 92.0299 289.38 85.1999 289.4H29.1099L29.1199 58.71H85.2499C92.0199 58.73 97.5599 64.27 97.5799 71.16V152.02C97.5799 158.54 92.2399 163.8 85.7199 163.8H84.4799C91.6799 163.8 97.5799 169.65 97.5799 176.85V276.94L97.5899 276.95ZM57.5599 87.2H69.2399V152.94H57.5599V87.2ZM69.2399 181.18H57.5599V260.85H69.2399V181.18Z" fill="white"/>
    <path fill-rule="evenodd" clip-rule="evenodd" d="M259.87 58.71V289.48L203.79 289.4C196.96 289.38 191.42 283.84 191.4 276.95L191.43 111.32C191.44 104.42 196.95 98.89 203.72 98.87H231.41V58.71H259.87ZM219.75 127.06H231.43V260.85H219.75V127.06Z" fill="white"/>
    <path d="M109.91 58.71H138.35V87.2H109.91V58.71Z" fill="white"/>
    <path d="M109.91 98.8799H138.35V289.48H109.91V98.8799Z" fill="white"/>
    <path d="M636.613 224.621C662.879 130.421 607.808 32.7647 513.608 6.49908C419.408 -19.7665 321.751 35.305 295.486 129.505C269.22 223.705 324.292 321.361 418.492 347.627C512.691 373.892 610.348 318.821 636.613 224.621Z" fill="white"/>
    <path d="M618.129 219.481C641.545 135.501 592.448 48.4393 508.468 25.0232C424.488 1.60713 337.426 50.704 314.01 134.684C290.594 218.664 339.691 305.726 423.671 329.143C507.651 352.559 594.713 303.462 618.129 219.481Z" fill="url(#paint0_linear_5_2709)"/>
    <path opacity="0.75" d="M618.129 219.481C641.545 135.501 592.448 48.4393 508.468 25.0232C424.488 1.60713 337.426 50.704 314.01 134.684C290.594 218.664 339.691 305.726 423.671 329.143C507.651 352.559 594.713 303.462 618.129 219.481Z" fill="black"/>
    <path d="M491.12 91.9301H443.49V261.72H491.12V91.9301Z" fill="white"/>
    <path d="M552.2 153.01H382.41V200.64H552.2V153.01Z" fill="white"/>
    </g>
    <defs>
    <linearGradient id="paint0_linear_5_2709" x1="466.076" y1="334.932" x2="466.076" y2="19.212" gradientUnits="userSpaceOnUse">
    <stop/>
    <stop offset="1" stop-color="#333333"/>
    </linearGradient>
    <clipPath id="clip0_5_2709">
    <rect width="643.13" height="354.14" fill="white"/>
    </clipPath>
    </defs>
    </svg>
    