<svg width="32" height="32" viewBox="0 0 32 32" fill="none" xmlns="http://www.w3.org/2000/svg">
<path d="M31.7404 15.9329C31.7404 24.7322 24.749 31.8658 16.1216 31.8658C7.49429 31.8658 0.5 24.7322 0.5 15.9329C0.5 7.13366 7.49429 0 16.1216 0C24.749 0 31.7404 7.13366 31.7404 15.9329Z" fill="#E60000"/>
<path d="M16.245 24.8171C11.9543 24.8319 7.48854 21.0965 7.46845 15.0957C7.45408 11.1293 9.55497 7.30929 12.2356 5.04362C14.8531 2.83649 18.4377 1.41678 21.6866 1.40508C22.1057 1.40508 22.5448 1.44012 22.8117 1.5338C19.9703 2.13389 17.7088 4.83279 17.7174 7.89177C17.7174 7.99415 17.7259 8.10249 17.7374 8.15228C22.493 9.33489 24.6513 12.2621 24.6656 16.3105C24.6771 20.3618 21.543 24.7994 16.2449 24.817" fill="white"/>
</svg>
