<svg width="360" height="158" viewBox="0 0 360 158" fill="none" xmlns="http://www.w3.org/2000/svg">
<rect width="360" height="157.5" transform="translate(0 0.5)" fill="white"/>
<g clip-path="url(#clip0_5_2626)">
<path d="M162.548 109.046C156.559 109.046 151.691 104.428 151.691 98.7523C151.691 93.0764 156.559 88.4583 162.548 88.4583C168.536 88.4583 173.405 93.0764 173.405 98.7523C173.405 104.428 168.536 109.046 162.548 109.046Z" fill="black" fill-opacity="0.1"/>
<path d="M197.29 109.046C191.302 109.046 186.433 104.428 186.433 98.7523C186.433 93.0764 191.302 88.4583 197.29 88.4583C203.278 88.4583 208.147 93.0764 208.147 98.7523C208.147 104.428 203.278 109.046 197.29 109.046Z" fill="black" fill-opacity="0.1"/>
<path d="M162.548 100.811C158.956 100.811 156.034 98.0405 156.034 94.6347C156.034 91.2289 158.956 88.4583 162.548 88.4583C166.14 88.4583 169.062 91.2289 169.062 94.6347C169.062 98.0405 166.14 100.811 162.548 100.811Z" fill="#0D0D0D" fill-opacity="0.8"/>
<path d="M197.29 100.811C193.698 100.811 190.776 98.0405 190.776 94.6347C190.776 91.2289 193.698 88.4583 197.29 88.4583C200.882 88.4583 203.804 91.2289 203.804 94.6347C203.804 98.0405 200.882 100.811 197.29 100.811Z" fill="#0D0D0D"/>
<path d="M190.776 121.399H186.433V119.34C186.433 115.934 183.511 113.164 179.919 113.164C176.327 113.164 173.405 115.934 173.405 119.34V121.399H169.062V119.34C169.062 113.664 173.931 109.046 179.919 109.046C185.907 109.046 190.776 113.664 190.776 119.34V121.399Z" fill="#0D0D0D" fill-opacity="0.8"/>
<path d="M153.862 125.517C150.27 125.517 147.348 128.287 147.348 131.693V139.929C147.348 143.334 150.27 146.105 153.862 146.105C157.454 146.105 160.376 143.334 160.376 139.929V131.693C160.376 128.287 157.454 125.517 153.862 125.517ZM156.034 139.929C156.034 141.064 155.058 141.987 153.862 141.987C152.666 141.987 151.691 141.064 151.691 139.929V131.693C151.691 130.557 152.666 129.634 153.862 129.634C155.058 129.634 156.034 130.557 156.034 131.693V139.929Z" fill="#ED1C24"/>
<path d="M171.233 125.517C167.641 125.517 164.719 128.287 164.719 131.693V139.929C164.719 143.334 167.641 146.105 171.233 146.105C174.825 146.105 177.748 143.334 177.748 139.929V131.693C177.748 128.287 174.825 125.517 171.233 125.517ZM173.405 139.929C173.405 141.064 172.429 141.987 171.233 141.987C170.037 141.987 169.062 141.064 169.062 139.929V131.693C169.062 130.557 170.037 129.634 171.233 129.634C172.429 129.634 173.405 130.557 173.405 131.693V139.929Z" fill="#ED1C24"/>
<path d="M188.605 125.517H182.09C182.09 127.097 182.09 147.135 182.09 146.105H186.433V137.87H188.605C192.197 137.87 195.119 135.099 195.119 131.693C195.119 128.287 192.197 125.517 188.605 125.517ZM188.605 133.752H186.433V129.634H188.605C189.801 129.634 190.776 130.557 190.776 131.693C190.776 132.829 189.801 133.752 188.605 133.752Z" fill="#ED1C24"/>
<path d="M205.976 133.752C204.78 133.752 203.804 132.829 203.804 131.693C203.804 130.006 206.264 129.049 207.507 130.236L209.042 131.693L212.117 128.786L210.586 127.328C209.356 126.16 207.719 125.517 205.976 125.517C202.384 125.517 199.462 128.287 199.462 131.693C199.462 135.099 202.384 137.87 205.976 137.87C207.172 137.87 208.147 138.793 208.147 139.929C208.147 141.615 205.692 142.57 204.445 141.386L202.909 139.929L199.835 142.836L201.366 144.293C202.596 145.462 204.233 146.105 205.976 146.105C209.568 146.105 212.49 143.334 212.49 139.929C212.49 136.523 209.568 133.752 205.976 133.752Z" fill="#ED1C24"/>
<path d="M162.548 88.4582H151.691V84.3406H162.548C166.14 84.3406 169.062 81.57 169.062 78.1641V75.8308H173.405V78.1641C173.405 83.84 168.536 88.4582 162.548 88.4582Z" fill="#0D0D0D" fill-opacity="0.8"/>
<path d="M208.147 88.4582H197.29C191.302 88.4582 186.433 83.84 186.433 78.1641V75.8308H190.776V78.1641C190.776 81.57 193.698 84.3406 197.29 84.3406H208.147V88.4582Z" fill="#0D0D0D"/>
<path d="M186.433 119.34V121.399H190.776V119.34C190.776 113.664 185.907 109.046 179.919 109.046V113.164C183.511 113.164 186.433 115.934 186.433 119.34Z" fill="#0D0D0D"/>
</g>
<defs>
<clipPath id="clip0_5_2626">
<rect width="65.3906" height="70.6641" fill="white" transform="translate(147.305 75.7344)"/>
</clipPath>
</defs>
</svg>
